G04*
G04 #@! TF.GenerationSoftware,Altium Limited,Altium Designer,25.1.2 (22)*
G04*
G04 Layer_Physical_Order=2*
G04 Layer_Color=16711680*
%FSLAX44Y44*%
%MOMM*%
G71*
G04*
G04 #@! TF.SameCoordinates,2A4DB319-DFFA-4992-9846-9C88A3571DC6*
G04*
G04*
G04 #@! TF.FilePolarity,Positive*
G04*
G01*
G75*
%ADD22C,1.4000*%
%ADD23R,3.1000X1.0000*%
%ADD24C,0.6000*%
%ADD25C,0.5000*%
D22*
X534500Y40000D02*
D03*
X582500D02*
D03*
D23*
X582000Y67000D02*
D03*
Y13000D02*
D03*
D24*
X90000Y52700D02*
D03*
X525000Y65000D02*
D03*
D25*
X591677Y75500D02*
G03*
X590000Y75750I-1677J-5500D01*
G01*
X593000Y40000D02*
G03*
X593000Y40000I-10500J0D01*
G01*
X545000D02*
G03*
X545000Y40000I-10500J0D01*
G01*
X590000Y4250D02*
G03*
X591677Y4500I0J5750D01*
G01*
X97589Y76500D02*
G03*
X100000Y75750I2411J3500D01*
G01*
X90000D02*
G03*
X92411Y76500I0J4250D01*
G01*
X97589D02*
G03*
X100000Y75750I2411J3500D01*
G01*
X90000D02*
G03*
X92411Y76500I0J4250D01*
G01*
X10000Y75750D02*
G03*
X4250Y70000I0J-5750D01*
G01*
Y10000D02*
G03*
X10000Y4250I5750J0D01*
G01*
X592039Y58500D02*
X595750Y54788D01*
X586924Y49523D02*
X595750Y58349D01*
Y21500D02*
Y58500D01*
X586831Y49565D02*
X592065Y44331D01*
X563000Y58500D02*
X595750D01*
X563000Y75500D02*
X591677D01*
X577896Y58500D02*
X586831Y49565D01*
X592065Y44331D02*
X595750Y40646D01*
X592911Y41367D02*
X595750Y44207D01*
X589801Y32453D02*
X595750Y26504D01*
X577142Y30970D02*
X586612Y21500D01*
X563000D02*
X595750D01*
X573470Y34643D02*
X577142Y30970D01*
X577142Y30970D02*
X586612Y21500D01*
X573043D02*
X581133Y29589D01*
X546504Y75750D02*
X563000Y59254D01*
Y58500D02*
Y75500D01*
X560646Y75750D02*
X563000Y73396D01*
X532362Y75750D02*
X573470Y34642D01*
X532362Y75750D02*
X573470Y34643D01*
X530569Y49736D02*
X556583Y75750D01*
X504078D02*
X530233Y49594D01*
X518220Y75750D02*
X572470Y21500D01*
X489935Y75750D02*
X524118Y41568D01*
X563754Y58500D02*
X574953Y47301D01*
X563000Y59254D02*
X563754Y58500D01*
X573470Y34642D02*
X577142Y30970D01*
X543117Y34000D02*
X567617Y58500D01*
X542158Y47183D02*
X563000Y68025D01*
X524764Y43931D02*
X530569Y49736D01*
X540500Y31383D02*
X543117Y34000D01*
X475793Y75750D02*
X547293Y4250D01*
X544094Y35733D02*
X563000Y16828D01*
X485083Y4250D02*
X524764Y43931D01*
X527509Y4250D02*
X581759Y58500D01*
X541651Y4250D02*
X572977Y35576D01*
X456798Y4250D02*
X528298Y75750D01*
X447509D02*
X519009Y4250D01*
X470941D02*
X542440Y75750D01*
X461651D02*
X533151Y4250D01*
X587185Y21500D02*
X595750Y30065D01*
X563000Y4500D02*
Y21500D01*
Y4500D02*
X591677D01*
X513367Y4250D02*
X540500Y31383D01*
X499225Y4250D02*
X527317Y32342D01*
X555793Y4250D02*
X563000Y11457D01*
X536068Y29618D02*
X561436Y4250D01*
X362656Y75750D02*
X434156Y4250D01*
X371945D02*
X443446Y75750D01*
X357803Y4250D02*
X429303Y75750D01*
X386088Y4250D02*
X457588Y75750D01*
X376798D02*
X448298Y4250D01*
X334372Y75750D02*
X405872Y4250D01*
X329519D02*
X401019Y75750D01*
X348514D02*
X420014Y4250D01*
X343661D02*
X415161Y75750D01*
X428514Y4250D02*
X500014Y75750D01*
X419225D02*
X490725Y4250D01*
X442656D02*
X514156Y75750D01*
X433367D02*
X504867Y4250D01*
X400230D02*
X471730Y75750D01*
X390941D02*
X462440Y4250D01*
X414372D02*
X485872Y75750D01*
X405083D02*
X476583Y4250D01*
X92411Y76500D02*
X97589D01*
X93206D02*
X165456Y4250D01*
X32534D02*
X104034Y75750D01*
X23245D02*
X94745Y4250D01*
X46676D02*
X118176Y75750D01*
X37387D02*
X108887Y4250D01*
X100000Y75750D02*
X590000D01*
X74961Y4250D02*
X146461Y75750D01*
X89103Y4250D02*
X160603Y75750D01*
X79813D02*
X151313Y4250D01*
X10015D02*
X589985D01*
X51529Y75750D02*
X123029Y4250D01*
X65671Y75750D02*
X137171Y4250D01*
X60819D02*
X132319Y75750D01*
X5934Y5934D02*
X75750Y75750D01*
X18392Y4250D02*
X89892Y75750D01*
X5934Y5934D02*
X75750Y75750D01*
X4250Y46676D02*
X33324Y75750D01*
X4250Y60819D02*
X19181Y75750D01*
X4250Y18392D02*
X61608Y75750D01*
X4250Y32534D02*
X47466Y75750D01*
X10000D02*
X90000D01*
X4251Y9891D02*
X9891Y4251D01*
X9164Y75689D02*
X80603Y4250D01*
X4250Y66461D02*
X66461Y4250D01*
X4250Y10015D02*
Y69985D01*
Y52319D02*
X52319Y4250D01*
X4250Y38176D02*
X38176Y4250D01*
X244666D02*
X316166Y75750D01*
X249519D02*
X321019Y4250D01*
X235377Y75750D02*
X306877Y4250D01*
X263661Y75750D02*
X335161Y4250D01*
X258808D02*
X330308Y75750D01*
X216382Y4250D02*
X287882Y75750D01*
X207093D02*
X278593Y4250D01*
X230524D02*
X302024Y75750D01*
X221235D02*
X292735Y4250D01*
X306088Y75750D02*
X377588Y4250D01*
X301235D02*
X372735Y75750D01*
X320230D02*
X391730Y4250D01*
X315377D02*
X386877Y75750D01*
X277803D02*
X349303Y4250D01*
X272951D02*
X344451Y75750D01*
X291945D02*
X363446Y4250D01*
X287093D02*
X358593Y75750D01*
X136382D02*
X207882Y4250D01*
X131529D02*
X203029Y75750D01*
X150524D02*
X222024Y4250D01*
X145671D02*
X217171Y75750D01*
X108098D02*
X179598Y4250D01*
X103245D02*
X174745Y75750D01*
X122240D02*
X193740Y4250D01*
X117387D02*
X188887Y75750D01*
X188098Y4250D02*
X259598Y75750D01*
X178808D02*
X250308Y4250D01*
X202240D02*
X273740Y75750D01*
X192951D02*
X264451Y4250D01*
X159813D02*
X231313Y75750D01*
X4250Y24034D02*
X24034Y4250D01*
X173956D02*
X245456Y75750D01*
X164666D02*
X236166Y4250D01*
M02*
