G04*
G04 #@! TF.GenerationSoftware,Altium Limited,Altium Designer,25.1.2 (22)*
G04*
G04 Layer_Physical_Order=1*
G04 Layer_Color=255*
%FSLAX44Y44*%
%MOMM*%
G71*
G04*
G04 #@! TF.SameCoordinates,46CFF683-A8BD-4168-B498-F43D8C0703ED*
G04*
G04*
G04 #@! TF.FilePolarity,Positive*
G04*
G01*
G75*
%ADD11R,1.9000X0.4000*%
%ADD12R,0.9000X0.7000*%
%ADD13R,2.7900X0.7400*%
%ADD19C,0.7000*%
%ADD20C,0.4000*%
%ADD21C,0.3810*%
%ADD22C,1.4000*%
%ADD23R,3.1000X1.0000*%
%ADD24C,0.6000*%
D11*
X511500Y58500D02*
D03*
Y10000D02*
D03*
Y15750D02*
D03*
Y21500D02*
D03*
Y65000D02*
D03*
D12*
X105000Y46500D02*
D03*
Y33500D02*
D03*
D13*
X24650Y65400D02*
D03*
X65350D02*
D03*
X24650Y52700D02*
D03*
X65350D02*
D03*
X24650Y40000D02*
D03*
X65350D02*
D03*
X24650Y27300D02*
D03*
X65350D02*
D03*
X24650Y14600D02*
D03*
X65350D02*
D03*
D19*
X105000Y46500D02*
G03*
X86100Y65400I-18900J0D01*
G01*
X105000Y33500D02*
G03*
X122750Y15750I17750J0D01*
G01*
X65350Y65400D02*
X86100D01*
X122750Y15750D02*
X490000D01*
X65350Y52700D02*
X90000D01*
D20*
X498536Y10000D02*
G03*
X492500Y7500I0J-8536D01*
G01*
X486465Y5000D02*
G03*
X492494Y7494I0J8536D01*
G01*
X45000Y10000D02*
G03*
X33895Y14600I-11105J-11105D01*
G01*
X45000Y10000D02*
G03*
X57071Y5000I12071J12071D01*
G01*
X487439Y67561D02*
G03*
X469479Y75000I-17960J-17960D01*
G01*
X491970Y63030D02*
G03*
X502907Y58500I10937J10937D01*
G01*
X55000Y75000D02*
G03*
X45000Y65000I0J-10000D01*
G01*
X37300Y27300D02*
G03*
X40886Y28186I0J7700D01*
G01*
D02*
G03*
X44114Y31414I-3586J6814D01*
G01*
D02*
G03*
X45000Y35000I-6814J3586D01*
G01*
X492494Y7494D02*
G03*
X492500Y7500I-6030J6041D01*
G01*
X498536Y10000D02*
X511500D01*
X24650Y14600D02*
X33895D01*
X57071Y5000D02*
X486465D01*
X487439Y67561D02*
X491970Y63030D01*
X469479Y75000D02*
X470000D01*
X55000D02*
X469479D01*
X502907Y58500D02*
X511500D01*
X45000Y65000D02*
Y65000D01*
Y35000D02*
Y65000D01*
X24650Y27300D02*
X37300D01*
X511500Y21500D02*
Y58500D01*
X490000Y15750D02*
X509500D01*
D21*
Y65000D02*
X525000D01*
D22*
X534500Y40000D02*
D03*
X582500D02*
D03*
D23*
X582000Y67000D02*
D03*
Y13000D02*
D03*
D24*
X90000Y52700D02*
D03*
X525000Y65000D02*
D03*
M02*
