G04*
G04 #@! TF.GenerationSoftware,Altium Limited,Altium Designer,25.1.2 (22)*
G04*
G04 Layer_Color=16711935*
%FSLAX44Y44*%
%MOMM*%
G71*
G04*
G04 #@! TF.SameCoordinates,46CFF683-A8BD-4168-B498-F43D8C0703ED*
G04*
G04*
G04 #@! TF.FilePolarity,Positive*
G04*
G01*
G75*
G36*
X90000D02*
X9015D01*
X7083Y384D01*
X5263Y1138D01*
X3625Y2233D01*
X2233Y3625D01*
X1138Y5263D01*
X384Y7083D01*
X0Y9015D01*
Y10000D01*
X0Y10000D01*
X0Y70000D01*
Y70985D01*
X384Y72917D01*
X1138Y74737D01*
X2233Y76375D01*
X3625Y77768D01*
X5263Y78862D01*
X7083Y79616D01*
X9015Y80000D01*
X10000D01*
X10000Y80000D01*
X90000D01*
Y0D01*
D02*
G37*
G36*
X590000Y80000D02*
X590985D01*
X592917Y79616D01*
X594737Y78862D01*
X596375Y77768D01*
X597767Y76375D01*
X598862Y74737D01*
X599616Y72917D01*
X599962Y71174D01*
X600000Y70001D01*
Y70000D01*
X600000D01*
X600000Y70000D01*
Y10000D01*
Y9015D01*
X599616Y7083D01*
X598862Y5263D01*
X597767Y3625D01*
X596375Y2233D01*
X594737Y1138D01*
X592917Y384D01*
X590985Y0D01*
X490000D01*
Y80000D01*
X590000Y80000D01*
D02*
G37*
M02*
